<svg width="85" height="68" viewBox="0 0 85 68" fill="none" xmlns="http://www.w3.org/2000/svg">
<path d="M79.135 27.7149L72.4069 8.67486C70.5729 3.48743 65.6102 0 60.059 0H24.941C19.3898 0 14.4271 3.48743 12.5963 8.67162L5.86827 27.7116C2.27538 30.0528 0 34.0971 0 38.5463V61.5238C0 65.1019 2.92596 68 6.53846 68C10.151 68 13.0769 65.1019 13.0769 61.5238V57.4406C13.0769 57.4406 30.3417 58.2857 42.5 58.2857C54.6583 58.2857 71.9231 57.4406 71.9231 57.4406V61.5238C71.9231 65.1019 74.849 68 78.4615 68C82.074 68 85 65.1019 85 61.5238V38.5463C85 34.0971 82.7213 30.0528 79.135 27.7149ZM15.0221 21.4135L18.7687 10.812C19.6873 8.21505 22.1621 6.47619 24.941 6.47619H60.059C62.8379 6.47619 65.3127 8.21505 66.2314 10.812L69.9779 21.4135C70.5664 23.0811 69.1638 24.7617 67.4017 24.48C60.9908 23.4535 52.749 22.6667 42.5 22.6667C32.251 22.6667 24.0092 23.4535 17.5983 24.48C15.8362 24.7617 14.4337 23.0811 15.0221 21.4135ZM14.7115 45.3333C12.0046 45.3333 9.80769 43.1573 9.80769 40.4762C9.80769 37.795 12.0046 35.619 14.7115 35.619C17.4185 35.619 19.6154 37.795 19.6154 40.4762C19.6154 43.1573 17.4185 45.3333 14.7115 45.3333ZM52.3077 42.0952H32.6923C30.8877 42.0952 29.4231 40.6446 29.4231 38.8571C29.4231 37.0697 30.8877 35.619 32.6923 35.619H52.3077C54.1123 35.619 55.5769 37.0697 55.5769 38.8571C55.5769 40.6446 54.1123 42.0952 52.3077 42.0952ZM70.2885 45.3333C67.5815 45.3333 65.3846 43.1573 65.3846 40.4762C65.3846 37.795 67.5815 35.619 70.2885 35.619C72.9954 35.619 75.1923 37.795 75.1923 40.4762C75.1923 43.1573 72.9954 45.3333 70.2885 45.3333Z" fill="white"/>
</svg>
