<svg width="35" height="41" viewBox="0 0 35 41" fill="none" xmlns="http://www.w3.org/2000/svg">
<path d="M27.239 11.9583C27.476 11.9583 27.6683 12.1497 27.6683 12.3854V12.821C27.6683 13.4993 26.8732 13.6667 26.2808 13.6667L25.3483 11.9583H27.239ZM26.0009 14.953C26.5504 15.9661 26.8131 16.8766 26.8131 18.0844C26.8131 19.2546 26.4731 20.2489 25.9494 21.4857V23.0625C25.9494 23.534 25.5647 23.9167 25.0907 23.9167H23.8028C23.3289 23.9167 22.9442 23.534 22.9442 23.0625V22.2083H11.7822V23.0625C11.7822 23.534 11.3975 23.9167 10.9236 23.9167H9.63739C9.16343 23.9167 8.77878 23.534 8.77878 23.0625V21.484C8.25674 20.2472 7.91501 19.2529 7.91501 18.0827C7.91501 16.8749 8.17946 15.9644 8.72726 14.9513C9.43819 13.6393 10.3174 12.0028 11.243 10.4653C11.9557 9.2865 12.3266 9.00804 13.1989 8.85258C14.516 8.61854 15.7044 8.54167 17.3649 8.54167C19.0255 8.54167 20.2138 8.61854 21.5309 8.85258C22.4033 9.00804 22.7759 9.28479 23.4868 10.467C24.4124 12.0045 25.2899 13.6393 26.0009 14.953ZM12.2132 17.5104C12.2132 16.8032 11.6362 16.2292 10.9253 16.2292C10.2144 16.2292 9.63739 16.8032 9.63739 17.5104C9.63739 18.2177 10.2144 18.7917 10.9253 18.7917C11.6362 18.7917 12.2132 18.2177 12.2132 17.5104ZM20.7994 18.3646C20.7994 18.1288 20.6071 17.9375 20.3701 17.9375H14.3598C14.1228 17.9375 13.9305 18.1288 13.9305 18.3646C13.9305 18.6003 14.1228 18.7917 14.3598 18.7917H20.3701C20.6071 18.7917 20.7994 18.6003 20.7994 18.3646ZM23.3254 13.6428C23.3254 13.6428 22.6901 12.083 21.9259 10.959C21.7524 10.7044 21.4828 10.5302 21.1789 10.4755C19.8807 10.2432 18.7439 10.1697 17.3649 10.1697C15.986 10.1697 14.8492 10.2432 13.5527 10.4755C13.2487 10.5302 12.9791 10.7044 12.8057 10.959C12.0415 12.083 11.4044 13.6428 11.4044 13.6428C12.8143 13.911 15.105 14.0681 17.3649 14.0681C19.6248 14.0681 21.9156 13.911 23.3254 13.6428ZM25.0925 17.5104C25.0925 16.8032 24.5155 16.2292 23.8045 16.2292C23.0936 16.2292 22.5166 16.8032 22.5166 17.5104C22.5166 18.2177 23.0936 18.7917 23.8045 18.7917C24.5155 18.7917 25.0925 18.2177 25.0925 17.5104ZM9.38152 11.9583H7.49085C7.25388 11.9583 7.06155 12.1497 7.06155 12.3854V12.821C7.06155 13.4993 7.85662 13.6667 8.44907 13.6667L9.38152 11.9583ZM17.3649 0C7.88066 0 0.192627 7.50642 0.192627 16.7673C0.192627 26.1717 7.70551 32.6001 17.3649 41C27.0243 32.6001 34.5372 26.1717 34.5372 16.7673C34.5372 7.50642 26.8475 0 17.3649 0ZM17.3649 30.75C9.77649 30.75 3.62709 24.6308 3.62709 17.0833C3.62709 9.53592 9.77649 3.41667 17.3649 3.41667C24.9534 3.41667 31.1028 9.53592 31.1028 17.0833C31.1028 24.6308 24.9534 30.75 17.3649 30.75Z" fill="white"/>
</svg>
