<svg width="88" height="88" viewBox="0 0 37 36" fill="none" xmlns="http://www.w3.org/2000/svg">
    <path d="M18.3548 3C26.7096 3 33.5068 9.729 33.5068 18C33.5068 26.271 26.7096 33 18.3548 33C9.99997 33 3.20277 26.271 3.20277 18C3.20277 9.729 9.99997 3 18.3548 3ZM18.3548 0C8.31355 0 0.172363 8.0595 0.172363 18C0.172363 27.9405 8.31355 36 18.3548 36C28.396 36 36.5372 27.9405 36.5372 18C36.5372 8.0595 28.396 0 18.3548 0ZM25.1732 25.9665L22.5065 20.871L20.9428 21.6285C19.2457 22.443 15.7911 15.7635 17.4502 14.883L19.0291 14.1135L16.382 9L14.7865 9.78C9.33025 12.5955 17.9942 29.2665 23.5747 26.742L25.1732 25.9665Z" fill="white"/>
</svg>
