<svg width="66" height="66" viewBox="0 0 66 66" fill="none" xmlns="http://www.w3.org/2000/svg">
<path d="M57.75 57.75V66H66V57.75H63.25V55H60.5V57.75H57.75ZM63.25 60.5V63.25H60.5V60.5H63.25ZM0 66H22V44H0V66ZM2.75 46.75H19.25V63.25H2.75V46.75ZM57.75 55V52.25H60.5V55H57.75ZM5.5 49.5H16.5V60.5H5.5V49.5ZM27.5 41.25V46.75H24.75V41.25H27.5ZM33 19.25H35.75V22H33V19.25ZM35.75 16.5H38.5V19.25H35.75V16.5ZM38.5 22V19.25H41.25V22H38.5ZM38.5 16.5H41.25V0H33V2.75H24.75V5.5H33V8.25H38.5V16.5ZM35.75 5.5V2.75H38.5V5.5H35.75ZM16.5 16.5H5.5V5.5H16.5V16.5ZM33 16.5H30.25V11H24.75V8.25H33V11H35.75V13.75H33V16.5ZM22 0H0V22H22V0ZM19.25 19.25H2.75V2.75H19.25V19.25ZM27.5 19.25H24.75V16.5H30.25V22H27.5V19.25ZM19.25 27.5V30.25H16.5V27.5H19.25ZM60.5 44H66V52.25H63.25V49.5H57.75V52.25H55V49.5H52.25V46.75H55V44H57.75V46.75H60.5V44ZM49.5 49.5H46.75V52.25H44V49.5H41.25V46.75H44V44H38.5V41.25H35.75V44H33V46.75H27.5V49.5H24.75V66H38.5V63.25H35.75V57.75H33V63.25H27.5V60.5H30.25V57.75H27.5V55H35.75V52.25H41.25V57.75H38.5V60.5H41.25V66H44V60.5H46.75V63.25H49.5V60.5H52.25V55H55V52.25H49.5V49.5ZM46.75 57.75H44V55H46.75V57.75ZM63.25 41.25V35.75H66V41.25H63.25ZM38.5 55V57.75H35.75V55H38.5ZM52.25 63.25V60.5H55V66H49.5V63.25H52.25ZM44 0V22H66V0H44ZM63.25 19.25H46.75V2.75H63.25V19.25ZM60.5 16.5H49.5V5.5H60.5V16.5ZM63.25 27.5H66V33H63.25V35.75H57.75V24.75H60.5V30.25H63.25V27.5ZM52.25 44V35.75H55V44H52.25ZM16.5 24.75V27.5H11V30.25H13.75V33H5.5V30.25H8.25V27.5H2.75V30.25H0V24.75H16.5ZM13.75 35.75V33H16.5V41.25H13.75V38.5H11V41.25H8.25V38.5H5.5V41.25H0V38.5H2.75V35.75H13.75ZM2.75 33V35.75H0V33H2.75ZM55 27.5H52.25V24.75H55V27.5ZM19.25 38.5H22V41.25H19.25V38.5ZM60.5 44H57.75V41.25H60.5V44ZM46.75 46.75V44H49.5V46.75H46.75ZM44 44H46.75V35.75H52.25V33H55V30.25H52.25V27.5H46.75V24.75H44V27.5H41.25V24.75H38.5V27.5H35.75V24.75H33V27.5H30.25V30.25H27.5V27.5H30.25V24.75H19.25V27.5H24.75V30.25H19.25V33H22V38.5H24.75V35.75H30.25V41.25H33V30.25H35.75V35.75H44V38.5H38.5V41.25H44V44ZM46.75 30.25H49.5V33H46.75V30.25ZM41.25 33H38.5V30.25H41.25V33Z" fill="white"/>
</svg>
